<svg xmlns="http://www.w3.org/2000/svg" xmlns:xlink="http://www.w3.org/1999/xlink"><defs><symbol viewBox="0 0 16 16" id="arrow-back"><path d="m12.082 15.67.084-.097a1.125 1.125 0 0 0-.006-1.382L6.327 8l5.822-6.178.084-.117c.295-.486.19-1.11-.245-1.461a1.09 1.09 0 0 0-1.545.174L4.05 7.293l-.083.116c-.247.41-.217.92.073 1.287l6.413 6.898.083.092a1.09 1.09 0 0 0 1.452.07l.094-.085Z"></path></symbol><symbol viewBox="0 0 6 11" id="arrow-icon"><path d="M.383 11 6 5.5.383 0 0 .372 5.234 5.5 0 10.628z" fill-rule="evenodd"></path></symbol><symbol viewBox="0 0 19 39" id="arrow-next"><path d="m2 2 15 17.5L2 37" stroke-width="3" fill="none" fill-rule="evenodd" stroke-linecap="round" stroke-linejoin="round"></path></symbol><symbol viewBox="0 0 19 39" id="arrow-prev"><path d="M17 37 2 19.5 17 2" stroke-width="3" fill="none" fill-rule="evenodd" stroke-linecap="round" stroke-linejoin="round"></path></symbol><symbol viewBox="0 0 74 74" id="arrow-search"><style>#arrow-search .st0{fill:none;stroke:#9b9b9b;stroke-width:11;stroke-linecap:round}</style><g id="arrow-search_Arrows_Search"><path id="arrow-search_Line" class="st0" d="m6.3 6.2 55.6 61.7"></path><path id="arrow-search_Line-Copy" class="st0" d="M6.3 6.2h49.4"></path><path id="arrow-search_Line_1_" class="st0" d="M6.3 6.2v49.3"></path></g></symbol><symbol fill="none" viewBox="0 0 8 8" id="arrow-top-right"><path fill-rule="evenodd" clip-rule="evenodd" d="M1.133 0a.5.5 0 1 0 0 1h5.165L.146 7.147a.5.5 0 1 0 .708.707l6.144-6.14v5.15a.5.5 0 0 0 1 0V.579a.499.499 0 0 0-.3-.536.498.498 0 0 0-.2-.042H1.133Z" fill="#fff"></path></symbol><symbol viewBox="0 0 18 20" id="bag"><g stroke="#FFF" stroke-width="2" fill="none" fill-rule="evenodd"><path d="M1 7v10a2 2 0 0 0 2 2h12a2 2 0 0 0 2-2V7H1ZM5 7h8V5a4 4 0 1 0-8 0v2Z"></path></g></symbol><symbol class="icon icon-menu-toggle" aria-hidden="true" viewBox="0 0 100 100" id="burger"><g class="svg-menu-toggle"><path class="line line-1" d="M5 13h90v14H5z"></path><path class="line line-2" d="M5 43h90v14H5z"></path><path class="line line-3" d="M5 73h90v14H5z"></path></g></symbol><symbol viewBox="0 0 40 40" id="carbon-footprint"><g fill="none" fill-rule="evenodd"><circle stroke="#969696" fill="#FFF" cx="20" cy="20" r="19.5"></circle><path d="M10.954 16.745c1.133 0 2.056.626 2.67 1.809h3.043c-.745-2.96-3.043-4.803-5.729-4.803a5.674 5.674 0 0 0-4.19 1.776A6.09 6.09 0 0 0 5 19.873c0 1.776.55 3.264 1.634 4.465 1.099 1.244 2.653 1.94 4.272 1.911 2.767 0 4.952-1.776 5.712-4.701H13.56c-.614 1.116-1.57 1.725-2.654 1.725-1.585 0-3.01-1.472-3.01-3.383a3.213 3.213 0 0 1 .897-2.244 2.937 2.937 0 0 1 2.161-.901m12.821-2.995a6.214 6.214 0 0 0-4.427 1.762 6.111 6.111 0 0 0-1.848 4.36c0 1.781.58 3.273 1.727 4.477a6.052 6.052 0 0 0 4.531 1.9 6.193 6.193 0 0 0 4.48-1.882 6.226 6.226 0 0 0 1.761-4.443c-.028-3.398-2.798-6.145-6.224-6.173m-.017 9.513c-1.676 0-3.198-1.458-3.198-3.357a3.15 3.15 0 0 1 1.583-2.752 3.203 3.203 0 0 1 3.195 0 3.15 3.15 0 0 1 1.583 2.752c0 1.967-1.42 3.357-3.163 3.357M35 21.274c0-1.003-.787-1.69-2.083-1.69-1.264 0-2.075.833-2.084 2.16h1.473c0-.04-.008-.09-.008-.13 0-.526.242-.825.61-.825.36 0 .578.235.578.639 0 .81-.87 1.764-2.62 2.767v1.222h4.118V24.13H32.9c1.397-.874 2.1-1.925 2.1-2.856" fill="#969696" fill-rule="nonzero"></path></g></symbol><symbol viewBox="0 0 28 22" id="check"><path d="m2 10.162 7.84 8.161L25.469 2" stroke-width="4" fill="none" fill-rule="evenodd" stroke-linecap="round"></path></symbol><symbol viewBox="0 0 16 16" id="close"><path d="M14.96 1.04c.364.363.305 1.021-.116 1.524l-.103.113L9.418 8l5.323 5.323c.513.513.61 1.246.22 1.637-.364.364-1.022.305-1.525-.116l-.113-.103L8 9.418l-5.323 5.323c-.513.513-1.246.61-1.637.22-.364-.364-.305-1.022.116-1.525l.103-.113L6.582 8 1.259 2.677c-.513-.513-.61-1.246-.22-1.637.364-.364 1.022-.305 1.525.116l.113.103L8 6.582l5.323-5.323c.513-.513 1.246-.61 1.637-.22Z"></path></symbol><symbol viewBox="0 0 16 16" id="disabled"><path d="M8 0a8 8 0 1 1 0 16A8 8 0 0 1 8 0Zm5.135 3.854-9.281 9.281a6.6 6.6 0 0 0 9.282-9.282ZM8 1.4a6.6 6.6 0 0 0-5.135 10.746l9.281-9.281A6.572 6.572 0 0 0 8 1.4Z" fill="#000" fill-rule="evenodd"></path></symbol><symbol viewBox="0 0 60 60" id="disc"><circle cx="30" cy="30" r="30" fill-rule="evenodd"></circle></symbol><symbol viewBox="0 0 16 16" id="discontinued"><path d="M8 0a8 8 0 1 1 0 16A8 8 0 0 1 8 0Zm5.135 3.854-9.281 9.281a6.6 6.6 0 0 0 9.282-9.282ZM8 1.4a6.6 6.6 0 0 0-5.135 10.746l9.281-9.281A6.572 6.572 0 0 0 8 1.4Z" fill="#fff" fill-rule="evenodd"></path></symbol><symbol viewBox="0 0 17 18" id="edit-pencil"><g fill-rule="nonzero" fill="none"><path d="m14.425 5.904-8.486 8.485-2.828-2.828 8.485-8.486a.997.997 0 0 1 1.414 0l1.415 1.415a.997.997 0 0 1 0 1.414Z" stroke="#000" stroke-width="2"></path><path fill="#000" d="m.99 12.268 4.242 4.242-4.95.708zM10.182 3.075l4.242 4.243-1.414 1.414L8.767 4.49z"></path></g></symbol><symbol viewBox="0 0 22 15" id="email"><g stroke="#000" stroke-width="2" fill="none" fill-rule="evenodd"><path d="M2.038 1.036h16.988a1 1 0 0 1 1 1v10.88a1 1 0 0 1-1 1H2.038a1 1 0 0 1-1-1V2.037a1 1 0 0 1 1-1Z"></path><path d="m1.538 1.478 8.994 7.1M10.532 8.579l8.995-7.1" stroke-linecap="round"></path></g></symbol><symbol viewBox="0 0 22 15" id="email-white"><g stroke="#FFF" stroke-width="2" fill="none" fill-rule="evenodd"><path d="M2.038 1.036h16.988a1 1 0 0 1 1 1v10.88a1 1 0 0 1-1 1H2.038a1 1 0 0 1-1-1V2.037a1 1 0 0 1 1-1Z"></path><path d="m1.538 1.478 8.994 7.1M10.532 8.579l8.995-7.1" stroke-linecap="round"></path></g></symbol><symbol fill="none" viewBox="0 0 4 19" id="exclamation"><path d="M2.164 12.368a.068.068 0 0 1-.069-.068V1.39a.068.068 0 0 1 .137 0V12.3c0 .038-.03.068-.068.068Zm.34 4.568a.341.341 0 1 1-.681 0 .341.341 0 0 1 .682 0Z" fill="#000" stroke="#000" stroke-width="2.045"></path></symbol><symbol fill="none" viewBox="0 0 16 14" id="favorite-heart-empty"><path d="M2.013 2.052c-1.351 1.402-1.35 3.66 0 5.063l5.983 5.34c1.997-2.072 3.993-3.262 5.99-5.333a3.667 3.667 0 0 0 0-5.063 3.357 3.357 0 0 0-4.88 0L8.002 3.202l-1.109-1.15a3.357 3.357 0 0 0-4.88 0Z" stroke="#fff" stroke-width="1.5" stroke-linejoin="round"></path></symbol><symbol fill="none" viewBox="0 0 16 14" id="favorite-heart-empty-pdp-max-lite"><path d="M2.013 2.052c-1.351 1.402-1.35 3.66 0 5.063l5.983 5.34c1.997-2.072 3.993-3.262 5.99-5.333a3.667 3.667 0 0 0 0-5.063 3.357 3.357 0 0 0-4.88 0L8.002 3.202l-1.109-1.15a3.357 3.357 0 0 0-4.88 0Z" stroke="#000" stroke-width="1.5" stroke-linejoin="round"></path></symbol><symbol fill="none" viewBox="0 0 16 14" id="favorite-heart-full"><path d="M2.013 2.052c-1.351 1.402-1.35 3.66 0 5.063l5.983 5.34c1.997-2.072 3.993-3.262 5.99-5.333a3.667 3.667 0 0 0 0-5.063 3.357 3.357 0 0 0-4.88 0L8.002 3.202l-1.109-1.15a3.357 3.357 0 0 0-4.88 0Z" fill="#F2CD95" stroke="#F2CD95" stroke-width="1.5" stroke-linejoin="round"></path></symbol><symbol fill="none" viewBox="0 0 16 14" id="favorite-heart-full-pdp-max-lite"><path d="M2.013 2.052c-1.351 1.402-1.35 3.66 0 5.063l5.983 5.34c1.997-2.072 3.993-3.262 5.99-5.333a3.667 3.667 0 0 0 0-5.063 3.357 3.357 0 0 0-4.88 0L8.002 3.202l-1.109-1.15a3.357 3.357 0 0 0-4.88 0Z" fill="#000" stroke="#000" stroke-width="1.5" stroke-linejoin="round"></path></symbol><symbol fill="none" viewBox="0 0 16 14" id="favorite-heart-outlined"><path d="M2.013 2.052c-1.351 1.402-1.35 3.66 0 5.063l5.983 5.34c1.997-2.072 3.993-3.262 5.99-5.333a3.667 3.667 0 0 0 0-5.063 3.357 3.357 0 0 0-4.88 0L8.002 3.202l-1.109-1.15a3.357 3.357 0 0 0-4.88 0Z" stroke="#F2CD95" stroke-width="1.5" stroke-linejoin="round"></path></symbol><symbol fill="none" viewBox="0 0 16 14" id="favorite-heart-outlined-pdp-max-lite"><path d="M2.013 2.052c-1.351 1.402-1.35 3.66 0 5.063l5.983 5.34c1.997-2.072 3.993-3.262 5.99-5.333a3.667 3.667 0 0 0 0-5.063 3.357 3.357 0 0 0-4.88 0L8.002 3.202l-1.109-1.15a3.357 3.357 0 0 0-4.88 0Z" stroke="#626566" stroke-width="1.5" stroke-linejoin="round"></path></symbol><symbol viewBox="0 0 20 17" id="filter"><g transform="translate(1)" fill="none" fill-rule="evenodd"><path d="M.648 2.5H17.51M.648 8.5H17.51M.648 14.5H17.51" stroke="currentColor" stroke-width="2" stroke-linecap="square"></path><ellipse fill="currentColor" cx="7.5" cy="2.376" rx="2.5" ry="2.376"></ellipse><ellipse fill="currentColor" cx="3.5" cy="8.376" rx="2.5" ry="2.376"></ellipse><ellipse fill="currentColor" cx="12.5" cy="14.376" rx="2.5" ry="2.376"></ellipse></g></symbol><symbol viewBox="0 0 10.7 6.1" id="ico-arrow-up"><path fill="none" stroke="currentColor" d="m.4 5.7 5-5 5 5"></path></symbol><symbol viewBox="0 0 15.9 15" id="ico-facebook"><path fill="currentColor" d="M11.9.1v2.4h-1.5c-.5 0-.8.1-1 .3s-.3.6-.3 1v1.7h2.7l-.4 2.7H9.1V15H6.3V8.2H4V5.5h2.4v-2c0-1.1.3-2 1-2.6S8.8 0 9.9 0c.9 0 1.5 0 2 .1z"></path></symbol><symbol viewBox="0 0 15.9 15" id="ico-instagram"><path fill="currentColor" d="M9.6 9.2c.5-.5.7-1 .7-1.6s-.2-1.2-.7-1.6-1-.7-1.6-.7-1.2.2-1.7.7-.7 1-.7 1.6.2 1.2.7 1.6 1 .7 1.6.7 1.2-.2 1.7-.7zm.8-4.1c.7.7 1 1.5 1 2.5s-.3 1.8-1 2.5-1.5 1-2.5 1-1.8-.3-2.5-1-1.1-1.5-1.1-2.5.3-1.8 1-2.5 1.5-1 2.5-1 2 .3 2.6 1zm1.8-1.8c.2.2.2.4.2.6 0 .2-.1.4-.2.6-.1.1-.3.2-.6.2-.2 0-.4-.1-.6-.2-.1-.2-.2-.4-.2-.6s.1-.4.2-.6c.2-.3.4-.3.6-.3.3 0 .5.1.6.3zM8.6 1.9H5.3c-.4 0-.6 0-.9.1-.2 0-.4.1-.5.1-.4.2-.7.3-.9.6s-.3.5-.5.8c0 .1-.1.4-.1.6 0 .3-.1.6-.1.9v5.2c0 .4 0 .7.1.9 0 .3.1.5.2.7.1.2.3.5.4.7.2.2.5.4.8.5.2.1.4.1.7.2.3.1.6.1.9.1h5.2c.4 0 .7 0 .9-.1.3 0 .5-.1.7-.2.3-.1.6-.3.8-.5s.4-.5.5-.8c.1-.2.1-.4.2-.7 0-.3.1-.6.1-.9V4.9c0-.4 0-.7-.1-.9-.1-.2-.3-.5-.3-.6-.1-.3-.3-.6-.5-.8s-.5-.4-.8-.5c-.2-.1-.4-.1-.7-.2-.3 0-.6-.1-.9-.1h-.9c-.3.1-.5.1-1 .1zm6.3 2.8v5.8c-.1 1.3-.4 2.2-1.1 2.9s-1.7 1.1-2.9 1.1H5.1c-1.3-.1-2.2-.4-2.9-1.1S1 11.8.9 10.4V4.6C1 3.4 1.4 2.5 2 1.8S3.7.7 5 .6h5.8c1.3.1 2.2.4 2.9 1.1s1.1 1.7 1.2 3z"></path></symbol><symbol viewBox="0 0 512 512" id="ico-mail"><path fill="currentColor" d="M464 88H52c-27.354 0-50 22.214-50 50v240c0 27.57 22.43 50 50 50h412c27.57 0 50-22.43 50-50V138c0-27.419-22.319-50-50-50zm-38.752 40L258 234.302 90.752 128h334.496zM474 378c0 5.514-4.486 10-10 10H52c-5.514 0-10-4.486-10-10V144.41l205.271 130.469a20 20 0 0 0 21.457 0L474 144.41V378z"></path></symbol><symbol viewBox="0 0 15.9 15" id="ico-pinterest"><path fill="currentColor" d="M14.1 4c.6 1.1.9 2.2.9 3.5s-.3 2.4-.9 3.5c-.6 1.1-1.5 1.9-2.5 2.5-1.2.7-2.3 1-3.6 1-.7 0-1.3-.1-2-.3.4-.6.6-1.1.7-1.5.1-.2.2-.8.5-1.9.1.2.3.4.7.6.3.2.7.3 1 .3.7 0 1.4-.2 2-.6.6-.4 1-1 1.3-1.7s.5-1.5.5-2.5c0-.7-.2-1.3-.5-2-.4-.6-.9-1.1-1.6-1.5-.8-.4-1.5-.5-2.4-.5-.7 0-1.3 0-1.8.2s-1 .4-1.4.7-.7.6-1 1c-.2.4-.5.8-.5 1.2-.3.4-.3.8-.3 1.2 0 .6.1 1.2.4 1.7s.6.8 1.1 1c.1.1.2 0 .2-.2 0 0 0-.1.1-.3s.1-.2.1-.3 0-.3-.1-.4c-.2-.3-.5-.8-.5-1.3 0-.9.3-1.7 1-2.4S7 4 8.1 4c.9 0 1.6.2 2.1.7s.8 1.2.8 2c0 1-.2 1.9-.6 2.6s-1 1.2-1.6 1.2c-.4 0-.7-.1-.9-.4-.3-.3-.3-.6-.2-1 0-.2.1-.5.2-.9 0-.4.1-.7.2-.9.1-.3.1-.5.1-.7 0-.3-.1-.6-.2-.8-.2-.1-.5-.2-.8-.2-.4 0-.7.2-1 .5-.2.3-.3.8-.3 1.3 0 .4.1.8.2 1.1l-.9 3.8c-.1.4-.1 1-.1 1.6-1.3-.6-2.3-1.4-3-2.6S.9 8.9.9 7.5c0-1.3.3-2.4.9-3.5s1.5-1.9 2.5-2.5 2.3-1 3.6-1 2.4.3 3.5.9 1.9 1.5 2.7 2.6z"></path></symbol><symbol viewBox="0 0 15.9 15" id="ico-tumblr"><path fill="currentColor" d="m11.6 12 .8 2.1c-.1.2-.5.4-1 .6s-1.2.3-1.6.3c-.7 0-1.3-.1-1.8-.2-.5-.2-1-.4-1.3-.7-.3-.3-.6-.6-.9-1s-.4-.7-.6-1.1c-.1-.4-.2-.7-.2-1.1V6.1H3.5V4.2c.5-.2.8-.4 1.2-.7s.6-.5.8-.8.4-.6.5-.9.3-.6.3-.9.1-.5.2-.8V0h2.4v3.8H12v2.3H8.9v4.7c0 .2 0 .3.1.5 0 .2.1.3.2.5.1.1.2.2.4.3s.5.1.8.1c.5 0 1-.1 1.2-.2z"></path></symbol><symbol viewBox="0 0 15.9 15" id="ico-twitter"><path fill="currentColor" d="M14.9 3.3c-.4.6-.9 1-1.4 1.4v.4c0 .7-.1 1.5-.3 2.2s-.6 1.5-1 2.1c-.5.7-1 1.3-1.6 1.8s-1.4.9-2.3 1.3c-1 .3-2 .5-3 .5-1.6 0-3.1-.4-4.4-1.2h.7c1.3 0 2.5-.4 3.6-1.2-.7 0-1.2-.2-1.7-.6s-.8-.8-1-1.4H3c.3 0 .5 0 .8-.1-.7-.1-1.2-.5-1.6-1s-.6-.9-.6-1.6c.4.2.7.3 1.2.3-.4-.2-.7-.6-1-1-.3-.4-.2-.8-.2-1.3s.1-1 .4-1.4c.7.9 1.6 1.5 2.6 2s2.1.8 3.3.9c0-.2-.1-.4-.1-.6 0-.8.3-1.4.8-2 .5-.5 1.2-.8 2-.8s1.5.3 2.1.9c.6-.1 1.3-.3 1.8-.7-.2.7-.6 1.2-1.3 1.5.6 0 1.1-.2 1.7-.4z"></path></symbol><symbol viewBox="0 0 15.9 15" id="ico-youtube"><path fill="currentColor" d="m6.2 9.5 4.3-2.2-4.3-2.2v4.4zM7.9 2h2.9c.9 0 1.6.1 2 .1h1.3c.1 0 .2 0 .3.1.1 0 .2.1.2.1s.2.1.3.2.2.1.3.2c0 0 .1.1.1.2.1.1.1.2.3.5.1.3.2.6.2.9 0 .4.1.8.1 1.2V8c0 .8 0 1.7-.2 2.5 0 .3-.1.6-.2.9s-.2.4-.3.5l-.1.1c-.1.1-.2.2-.3.2s-.2.1-.3.2c-.1 0-.2.1-.2.1-.1 0-.2.1-.3.1h-.5c-1.5.3-3.4.4-5.6.4-1.2 0-2.3 0-3.2-.1-.9 0-1.5 0-1.8-.1h-.7c-.2 0-.4-.1-.5-.1s-.3-.1-.5-.2-.4-.2-.5-.4c0 0-.1-.1-.1-.2-.1 0-.2-.1-.3-.4s-.2-.6-.2-.9c0-.4-.1-.8-.1-1.2V6.9c0-.8 0-1.7.2-2.5 0-.3.1-.6.2-.9.1-.3.1-.4.2-.5l.1-.1c.1-.2.2-.2.3-.3.1-.1.2-.1.3-.2.1 0 .2-.1.2-.1.1 0 .2-.1.3-.1h.6C3.8 2.1 5.7 2 7.9 2z"></path></symbol><symbol viewBox="0 0 16 16" id="icon-account"><path d="M11.4 8c.8-.9 1.3-2 1.3-3.2 0-2.6-2.2-4.8-4.8-4.8-2.6 0-4.8 2.2-4.8 4.8 0 1.3.5 2.4 1.3 3.3C1.9 8.9 0 11.2 0 14v1.2c0 .4.3.8.8.8s.8-.3.8-.8V14c0-2.6 2.1-4.7 4.6-4.7.5.2 1.1.3 1.7.3.6 0 1.2-.1 1.8-.3 2.6 0 4.8 2.2 4.8 4.8v1.1c0 .4.3.8.8.8s.8-.3.8-.8v-1.1C16 11.2 14 8.8 11.4 8zm-4.7-.1s-.1 0-.1-.1c-1.1-.5-1.9-1.7-1.9-3C4.7 3 6.2 1.5 8 1.5c1.8 0 3.3 1.5 3.3 3.3 0 1.8-1.5 3.3-3.3 3.3-.5 0-1-.1-1.3-.2z"></path></symbol><symbol viewBox="0 0 14 16" id="icon-bell"><g fill-rule="nonzero"><path d="M7 0C4.279 0 2.073 2.182 2.073 4.875v2.504l-1.416 1.4A2.205 2.205 0 0 0 .17 11.2a2.246 2.246 0 0 0 2.073 1.372h9.512c.908 0 1.726-.542 2.073-1.371a2.205 2.205 0 0 0-.486-2.42l-1.416-1.401V4.875C11.927 2.182 9.721 0 7 0Zm5.244 9.867a.677.677 0 0 1 .149.744.69.69 0 0 1-.637.421H2.244a.69.69 0 0 1-.637-.421.677.677 0 0 1 .15-.744l1.872-1.852v-3.14c0-1.842 1.51-3.336 3.371-3.336 1.862 0 3.371 1.494 3.371 3.336v3.14l1.873 1.852ZM4.667 14.857h4.667V16H4.667z"></path></g></symbol><symbol fill="none" viewBox="0 0 205 185" id="icon-burger-black"><g clip-path="url(#icon-burger-black_a)" fill="#000"><rect width="204.121" height="19.136" rx="9.568"></rect><rect y="82.924" width="204.121" height="19.136" rx="9.568"></rect><rect y="165.849" width="204.121" height="19.136" rx="9.568"></rect></g><defs></defs></symbol><clipPath id="icon-burger-black_a"><path fill="#fff" d="M0 0h205v185H0z"></path></clipPath><symbol fill="none" viewBox="0 0 204 204" id="icon-burger-close-black"><g clip-path="url(#icon-burger-close-black_a)"><path fill-rule="evenodd" clip-rule="evenodd" d="M175.952 175.952c4.16-4.16 3.117-11.947-2.328-17.393l-56.558-56.558 56.56-56.56 1.099-1.2c4.469-5.339 5.092-12.33 1.229-16.192-4.16-4.16-11.947-3.117-17.393 2.328l-56.56 56.56-56.56-56.56-1.2-1.1c-5.34-4.469-12.33-5.091-16.193-1.229-4.16 4.16-3.117 11.947 2.329 17.393L86.936 102 30.38 158.56l-1.1 1.201c-4.468 5.339-5.091 12.329-1.229 16.191 4.16 4.16 11.947 3.118 17.393-2.328L102 117.066l56.558 56.558 1.201 1.099c5.339 4.469 12.329 5.091 16.192 1.229Z" fill="#000"></path></g><defs></defs></symbol><clipPath id="icon-burger-close-black_a"><path fill="#fff" d="M0 0h204v204H0z"></path></clipPath><symbol viewBox="0 0 10 16" id="icon-chevron"><path class="st0" d="M1.1 15.8c.4.4 1.1.3 1.5-.1l.1-.1 6.4-6.9c.3-.4.3-.9.1-1.3l-.1-.1L2.7.4C2.3-.1 1.6-.1 1.1.2.7.6.6 1.2.9 1.7l.1.1L6.8 8 1 14.2c-.3.4-.3 1 0 1.4l.1.2z"></path></symbol><symbol viewBox="0 0 16 16" id="icon-earth"><g fill="#FFF" fill-rule="evenodd"><path d="M10.281 1.267c1.163 1.403 1.918 3.845 1.918 6.677 0 2.832-.755 5.274-1.918 6.677 2.755-.967 4.736-3.595 4.736-6.677 0-3.082-1.981-5.71-4.736-6.677ZM7.944 15.888a.436.436 0 0 1 0-.871c1.835 0 3.385-3.239 3.385-7.073C11.329 4.11 9.779.87 7.944.87a.435.435 0 0 1 0-.87c4.38 0 7.944 3.564 7.944 7.944s-3.564 7.944-7.944 7.944Z"></path><path d="M5.608 1.267C2.852 2.234.871 4.862.871 7.944c0 3.082 1.981 5.71 4.737 6.677-1.164-1.403-1.919-3.845-1.919-6.677 0-2.832.755-5.274 1.919-6.677Zm2.336 14.621C3.564 15.888 0 12.324 0 7.944S3.564 0 7.944 0a.435.435 0 1 1 0 .87c-1.835 0-3.385 3.24-3.385 7.074 0 3.834 1.55 7.073 3.385 7.073a.435.435 0 1 1 0 .871Z"></path><path d="M7.509.932c-1.638.462-2.95 3.485-2.95 7.012 0 3.527 1.312 6.55 2.95 7.012V.932Zm.435 14.956c-2.386 0-4.255-3.489-4.255-7.944S5.558 0 7.944 0c.241 0 .435.195.435.435v15.017a.435.435 0 0 1-.435.436Z"></path><path d="M8.379.932v14.024c1.639-.462 2.95-3.485 2.95-7.012 0-3.527-1.311-6.55-2.95-7.012Zm-.435 14.956a.436.436 0 0 1-.435-.436V.435c0-.24.195-.435.435-.435 2.386 0 4.255 3.489 4.255 7.944s-1.869 7.944-4.255 7.944Z"></path><path d="M15.453 8.379H.441a.435.435 0 0 1 0-.87h15.012a.435.435 0 1 1 0 .87"></path></g></symbol><symbol viewBox="0 0 15.72 15.99" id="icon-edit-black"><path d="M1.41 11.97a.94.94 0 0 1 .59.3l1.65 1.75a1 1 0 0 1 0 1.41 1 1 0 0 1-.54.26l-1.92.29a1 1 0 0 1-1.2-.84 1.31 1.31 0 0 1 0-.28l.27-2a1 1 0 0 1 1.15-.89Zm12-11.25.12.11 1.33 1.33a2.77 2.77 0 0 1 .22 3.77l-.09.14-8.19 8.18a.95.95 0 0 1-1.4-1.26l.07-.08 5.83-5.83-2.58-2.74-5.91 5.91a.93.93 0 0 1-1.3 0 .92.92 0 0 1-.1-1.22l.06-.08L9.65.72a2.74 2.74 0 0 1 3.76 0Zm-2.36 1.29-.06.07-1 1 2.6 2.71 1.05-1.07a.9.9 0 0 0 0-1.21l-.07-.08-1.3-1.31a.93.93 0 0 0-1.22-.11Z"></path></symbol><symbol viewBox="0 0 16 17" id="icon-edit-white"><path fill="#FFF" class="st0" d="M1.4 12.2c.2 0 .4.1.6.3l1.6 1.7c.4.4.4 1 0 1.4-.1.1-.3.2-.5.3l-1.9.3c-.6.1-1.1-.2-1.2-.8v-.3l.3-2c.1-.5.6-.9 1.1-.9zM13.4 1l.1.1 1.3 1.3c1.1 1.1 1.1 2.7.2 3.8v.2l-8.2 8.2c-.3.3-.9.3-1.3 0-.3-.3-.4-.9-.1-1.2l.1-.1 5.8-5.8-2.6-2.9-5.9 5.9c-.3.3-.9.3-1.3 0-.3-.3-.4-.9-.1-1.2l.1-.1L9.7 1c1-1 2.6-1 3.7 0zm-2.3 1.3-1 1L12.7 6l1-1c.3-.3.3-.8 0-1.2l-.1-.1-1.3-1.3c-.4-.3-.9-.4-1.2-.1z"></path></symbol><symbol viewBox="0 0 40 40" id="icon-email"><circle cx="20" cy="20" r="20" style="fill:#fff"></circle><path d="M26.8 15c.7 0 1.2.6 1.2 1.3v8.3c0 .7-.6 1.3-1.3 1.3H14.3c-.7 0-1.2-.6-1.2-1.3v-8.4c0-.7.6-1.3 1.3-1.3l12.4.1zm-11.9 3.2v5.7h11v-5.5l-4.5 3.4c-.3.4-.9.4-1.3.2l-.1-.2-5.1-3.6zm9.5-1.3h-7.8l4 2.9 3.8-2.9z" style="fill:#020202"></path></symbol><symbol viewBox="0 0 40 40" id="icon-favorite-black-in-circle-white"><circle cx="124" cy="539" r="20" style="fill:#fff" transform="translate(-104 -519)"></circle><path d="M20 27.2c-.2 0-.5-.1-.7-.2-2-1.5-6.6-5.1-7.3-7.4-.4-1.1-.2-2.4.5-3.5.7-1.2 2-2 3.5-2.2 1.8-.2 3.1.6 4 1.5.9-1 2.2-1.8 4-1.5 1.5.2 2.7 1 3.5 2.2.7 1.1.8 2.4.5 3.5-.7 2.5-6.2 6.6-7.3 7.4-.2.1-.5.2-.7.2zm-3.4-11h-.3c-1.1.1-1.6.7-1.8 1.1-.3.5-.4 1.1-.3 1.6v.1c.3 1 3.1 3.6 5.8 5.6 2.7-2 5.5-4.6 5.7-5.7v-.1c.2-.4.1-1-.2-1.6-.2-.4-.8-1-1.8-1.1-1.7-.1-2.5 1.6-2.6 1.9-.1.5-.6.9-1.1.9-.6 0-1-.4-1.1-.9-.1-.3-.8-1.8-2.3-1.8z"></path></symbol><symbol viewBox="0 0 40 40" id="icon-favorite-black-on-transparent-background"><defs></defs><g clip-path="url(#icon-favorite-black-on-transparent-background_a)" transform="translate(-104 -519)"><path d="M124 545.053s6.275-4.593 6.853-6.807c.579-1.6-.578-3.91-2.993-4.216-2.415-.307-3.685 1.837-3.86 2.718h0c-.175-.881-1.445-3.025-3.86-2.718-2.415.306-3.572 2.615-2.993 4.216.578 2.214 6.854 6.807 6.854 6.807h-.002Z" stroke="#000" stroke-width="2.3" fill="none" stroke-linecap="round" stroke-linejoin="round"></path></g></symbol><clipPath id="icon-favorite-black-on-transparent-background_a"><path d="M375 0v667H0V0h375Z"></path></clipPath><symbol viewBox="0 0 25 21" id="icon-favorite-thin"><defs><filter id="icon-favorite-thin_b" x="-31.924%" y="-33.247%" filterUnits="userSpaceOnUse" width="140.102%" height="147.852%"><feGaussianBlur stdDeviation="1" in="SourceAlpha" result="i2"></feGaussianBlur><feOffset dy="1" in="i2" result="i3"></feOffset><feColorMatrix values="0 0 0 0.0 0 0 0 0 0.0 0 0 0 0 0.0 0 0 0 0 0.5 0" in="i3"></feColorMatrix></filter></defs><g clip-path="url(#icon-favorite-thin_a)" transform="translate(-28 -366)"><g stroke-width="1.9" fill="none" stroke-linecap="round" stroke-linejoin="round"><path d="M9.499 15s8.517-6.233 9.302-9.237C19.586 3.59 18.016.456 14.738.04c-3.277-.415-5 2.494-5.24 3.69h.003C9.262 2.534 7.538-.375 4.261.04.984.456-.586 3.59.2 5.763.984 8.767 9.501 15 9.501 15H9.5Z" stroke="#000" filter="url(#icon-favorite-thin_b)" transform="translate(31 368)"></path><path d="M40.499 383s8.517-6.233 9.302-9.237c.785-2.173-.785-5.307-4.063-5.723-3.277-.415-5 2.494-5.24 3.69h.003c-.239-1.196-1.963-4.105-5.24-3.69-3.277.416-4.847 3.55-4.062 5.723.785 3.004 9.302 9.237 9.302 9.237H40.5Z" stroke="#FFF"></path></g></g></symbol><clipPath id="icon-favorite-thin_a"><path d="M375 0v667H0V0h375Z"></path></clipPath><symbol viewBox="0 0 16 13" id="icon-favorite-white"><path d="m8.08 1.59-.078.092-.074-.087C7.028.575 5.634-.117 4.02.087 1.18.447-.59 3.232.253 5.57c.213.83 1.03 1.89 2.334 3.175.406.399.853.813 1.336 1.24a51.248 51.248 0 0 0 1.798 1.508l.827.652.872.667c.153.118.35.192.58.192.124-.004.281-.055.471-.154.284-.148.903-.644 1.19-.869a53.677 53.677 0 0 0 2.415-1.996c.483-.426.931-.841 1.337-1.24 1.304-1.284 2.12-2.345 2.36-3.258.818-2.254-.953-5.038-3.794-5.399-1.616-.205-3 .475-3.9 1.503Zm3.66.382c1.59.202 2.573 1.664 2.26 2.824l-.04.127c-.149.553-.816 1.418-1.88 2.467-.38.373-.802.764-1.26 1.168a51.82 51.82 0 0 1-2.328 1.925l-.493.38-.491-.38A51.905 51.905 0 0 1 5.18 8.558c-.458-.404-.88-.795-1.26-1.168-.998-.983-1.646-1.806-1.825-2.291l-.029-.093c-.451-1.26.544-2.825 2.194-3.034 1.36-.172 2.507.854 2.78 1.843l.03.128c.01.045.023.089.04.134l.046.108c.42.855 1.683.57 1.79-.29l.003-.04-.002.01c.269-1.036 1.41-2.068 2.793-1.893Z" fill="#FFF" fill-rule="nonzero"></path></symbol><symbol viewBox="0 0 16 16" id="icon-header-search"><path d="M1.8 1.8c-2.4 2.4-2.4 6.4 0 8.8 2.4 2.4 6.4 2.4 8.8 0 2.4-2.4 2.4-6.4 0-8.8-2.4-2.4-6.3-2.4-8.8 0zM9.5 3c1.8 1.8 1.8 4.7 0 6.5-1.8 1.8-4.7 1.8-6.5 0C1.2 7.7 1.2 4.8 3 3c1.8-1.7 4.6-1.8 6.4-.1l.1.1zm3.2 8.7c-.3-.2-.7-.2-1 .1-.3.3-.3.8 0 1.1l3 2.9.1.1c.3.2.7.2 1-.1.3-.3.3-.8 0-1.1l-3.1-3z" style="fill-rule:evenodd;clip-rule:evenodd"></path></symbol><symbol viewBox="0 0 10 10" id="icon-remove-black"><path d="M1.8.3 5 3.5 8.2.3c.4-.4 1-.4 1.4-.1l.1.1c.4.4.4 1.1 0 1.5L6.5 5l3.2 3.2c.4.4.4 1 .1 1.4l-.1.1c-.4.4-1.1.4-1.5 0L5 6.5 1.8 9.7c-.4.4-1 .4-1.4.1l-.1-.1c-.4-.4-.4-1.1 0-1.5L3.5 5 .3 1.8C-.1 1.4-.1.8.2.4L.3.3c.4-.4 1.1-.4 1.5 0z"></path></symbol><symbol viewBox="0 0 10 10" id="icon-remove-white"><path fill="#FFF" class="st0" d="M1.8.3 5 3.5 8.2.3c.4-.4 1-.4 1.4-.1l.1.1c.4.4.4 1.1 0 1.5L6.5 5l3.2 3.2c.4.4.4 1 .1 1.4l-.1.1c-.4.4-1.1.4-1.5 0L5 6.5 1.8 9.7c-.4.4-1 .4-1.4.1l-.1-.1c-.4-.4-.4-1.1 0-1.5L3.5 5 .3 1.8C-.1 1.4-.1.8.2.4L.3.3c.4-.4 1.1-.4 1.5 0z"></path></symbol><symbol viewBox="0 0 28 28" id="icon-switch"><style>#icon-switch .st0{fill:#fff}</style><defs><path id="icon-switch_SVGID_1_" d="M21 5.1c1 0 1.9.8 1.9 1.8v14c0 1-.8 1.9-1.9 1.9H7c-1 0-1.8-.8-1.8-1.9V7C5.1 6 6 5.1 7 5.1h14zm0 1.7H7c-.1 0-.2.1-.2.2v14c0 .1.1.1.2.1h14c.1 0 .1-.1.1-.1V7c0-.1 0-.2-.1-.2z"></path></defs><use xlink:href="#icon-switch_SVGID_1_" style="overflow:visible;fill:#fff"></use><path class="st0" d="M8.3-5.1c.4 0 .7.1 1 .4l2 1.9c.3.3.3.8 0 1.2-.3.3-.9.3-1.2 0L9-2.6v5.8c0 .2-.1.4-.3.6-.1.1-.3.2-.5.2-.5 0-.9-.4-.9-.9v-5.7l-.7 1c-.3.3-.9.3-1.2 0-.3-.4-.3-.9 0-1.2l1.9-1.9c.2-.3.6-.4 1-.4z" transform="rotate(90 5.259 8.109)"></path><path class="st0" d="M8.3 5.1c.4 0 .7.1 1 .4l2 1.9c.3.3.3.8 0 1.2-.3.3-.9.3-1.2 0L9 7.6v5.8c0 .2-.1.4-.3.6-.2.1-.4.2-.6.2-.5 0-.8-.4-.8-.8V7.7l-.7.9c-.3.3-.9.3-1.2 0-.3-.3-.3-.8 0-1.2l1.9-1.9c.2-.2.6-.4 1-.4z" transform="matrix(0 1 1 0 4.278 8.75)"></path></symbol><clipPath id="icon-switch_SVGID_2_"><use xlink:href="#icon-switch_SVGID_1_" style="overflow:visible"></use></clipPath><symbol fill="none" viewBox="0 0 21 18" id="icon-tick"><path fill-rule="evenodd" clip-rule="evenodd" d="M17.797 1.208a1.544 1.544 0 0 1 2.229-.1c.593.56.676 1.48.223 2.14l-.125.16-12.72 14.338L.441 9.924a1.666 1.666 0 0 1 .095-2.3 1.542 1.542 0 0 1 2.086-.045l.143.142L7.4 12.927 17.797 1.209Z" fill="#000"></path></symbol><symbol viewBox="0 0 75 20" id="loreal-paris-logo"><defs><path id="loreal-paris-logo_a" d="M0 0h75v20H0z"></path></defs><g fill="none" fill-rule="evenodd"><path d="M9.784 11.481h-8.27V1.833H0v10.83h9.784v-1.182ZM8.122 5.664l2.038-3.831H8.52L7 5.663h1.122Zm10.124 6.569c-3.037 0-5.54-2.442-5.54-5.384 0-2.94 2.385-5.498 5.658-5.498a5.494 5.494 0 0 1 5.538 5.498c0 2.942-2.62 5.384-5.656 5.384ZM18.298 0c-4.39 0-7.381 3.096-7.381 6.845 0 3.947 3.305 6.731 7.381 6.731 4.076 0 7.38-2.744 7.38-6.73 0-3.75-3.03-6.846-7.38-6.846Zm15.957 6.84H29.2V3.115h5.23c1.204 0 1.882.563 2.126 1.276.16.49.057 1.134-.209 1.571-.437.725-1.267.878-2.093.878Zm1.296 1.296c2.479-.663 2.72-2.51 2.709-3.17-.149-1.934-1.45-3.133-3.793-3.133h-6.822v10.83h1.556V8.121h4.44l3.267 4.542h1.96s-2.35-3.057-3.317-4.527Zm19.663.369 2.593-5.175 2.626 5.175h-5.219Zm1.539-6.672-5.503 10.83h1.86l1.408-2.803h6.6l1.421 2.803h1.841l-5.508-10.83h-2.12ZM75 11.48h-8.27V1.833h-1.514v10.83H75v-1.182ZM48.635.084h-2.803l-1.31 1.472L48.634.084Zm-.15 7.612V6.498h-6.022V3.012h8.018v-1.18h-9.679v10.831h9.68v-1.182h-8.02V7.696h6.023ZM43.46 19.843h.776V16.75h-.776v3.092Zm-.005-3.55h.776v-.777h-.776v.777Zm5.932 1.243-1.667-.284c-.341-.06-.691-.18-.691-.548 0-.656.837-.759 1.333-.759.659 0 1.407.211 1.447.88h.74c-.032-.476-.236-1.38-2.276-1.38-1.415 0-2.01.662-2.01 1.337 0 .754.863.952 1.245 1.018l1.196.206c.959.168 1.244.313 1.244.765 0 .62-.96.729-1.53.729-.747 0-1.609-.23-1.609-1.013h-.74c0 .405.097.766.593 1.097.26.175.684.416 1.765.416 1 0 2.285-.283 2.285-1.308 0-.686-.57-1.023-1.325-1.156Zm-18.082.553 1.074-1.904h.019l.99 1.904h-2.083Zm.607-2.548-2.52 4.326h.933l.7-1.26h2.69l.662 1.26h.99l-2.428-4.326h-1.027Zm5.734 2h1.627c.734 0 1.232-.193 1.232-.777 0-.549-.523-.724-1.198-.724h-1.661v1.5Zm3.892 2.295h-.923l-1.235-1.756c-.015-.022-.045-.034-.076-.04h.04a.1.1 0 0 0-.04 0h-1.658v1.827h-.818V15.54h2.723c1.122 0 1.796.518 1.796 1.217 0 .498-.33 1.049-1.187 1.225l1.378 1.854ZM27.101 17.54h-1.627v-1.5h1.66c.675 0 1.198.174 1.198.723 0 .584-.498.777-1.231.777Zm.278-2h-2.724v4.326h.819v-1.826h1.905c1.316 0 1.796-.68 1.796-1.283 0-.7-.674-1.217-1.796-1.217Z" fill="#fff" mask="url(#loreal-paris-logo_b)"></path></g></symbol><mask id="loreal-paris-logo_b" fill="#fff"><use xlink:href="#loreal-paris-logo_a"></use></mask><symbol viewBox="0 0 23 23" id="media-pause-icon"><g transform="translate(1 1)" stroke="#FFF" fill="none" fill-rule="evenodd"><circle cx="10.374" cy="10.374" r="10.374"></circle><g stroke-linecap="round" stroke-width="1.5"><path d="M7.5 5v10M13.5 5v10"></path></g></g></symbol><symbol viewBox="0 0 23 23" id="media-play-icon"><g transform="translate(1 1)" fill="none" fill-rule="evenodd"><circle stroke="#FFF" cx="10.374" cy="10.374" r="10.374"></circle><path d="M7 5.859v8.3a.5.5 0 0 0 .739.44l7.47-4.061a.5.5 0 0 0 .008-.875l-7.47-4.24A.5.5 0 0 0 7 5.86Z" fill="#FFF"></path></g></symbol><symbol fill="none" viewBox="0 0 22 20" id="my-account"><path clip-rule="evenodd" d="M6.482 5.731a4.236 4.236 0 0 1 4.23-4.231 4.237 4.237 0 0 1 4.234 4.231c0 1.285-.588 2.424-1.495 3.201a4.194 4.194 0 0 1-2.738 1.031A4.188 4.188 0 0 1 7.98 8.934c-.91-.776-1.498-1.917-1.498-3.203Zm8.689 3.596a5.702 5.702 0 0 0 1.275-3.596A5.738 5.738 0 0 0 10.713 0a5.738 5.738 0 0 0-5.731 5.731c0 1.362.479 2.614 1.276 3.599C2.303 10.574.2 13.716 0 18.719a.75.75 0 0 0 .718.78c.417.057.763-.305.78-.719.186-4.651 2.19-7.369 6.097-8.245a5.695 5.695 0 0 0 6.24-.003c3.913.874 5.92 3.594 6.107 8.248a.75.75 0 0 0 .748.72l.03-.001a.75.75 0 0 0 .72-.78c-.2-5.009-2.307-8.151-6.27-9.392Z" fill="currentColor" fill-rule="evenodd"></path></symbol><symbol viewBox="0 0 8 8" id="open-new-window"><g fill-rule="nonzero" stroke="#fff" stroke-width="2" fill="none" stroke-linecap="round"><path d="M1 1.035V7h5.978M4.01 3.987l2.962-2.93M7 2.965V1H5"></path></g></symbol><symbol viewBox="0 0 44 44" id="pause"><path d="M15.5 0c-1.103 0-2 .897-2 2v40c0 1.103.897 2 2 2s2-.897 2-2V2c0-1.103-.897-2-2-2zm13 0c-1.103 0-2 .897-2 2v40c0 1.103.897 2 2 2s2-.897 2-2V2c0-1.103-.897-2-2-2z"></path></symbol><symbol viewBox="0 0 512 512" id="play"><path d="M133 440a35.37 35.37 0 0 1-17.5-4.67c-12-6.8-19.46-20-19.46-34.33V111c0-14.37 7.46-27.53 19.46-34.33a35.13 35.13 0 0 1 35.77.45l247.85 148.36a36 36 0 0 1 0 61l-247.89 148.4A35.5 35.5 0 0 1 133 440Z"></path></symbol><symbol viewBox="0 0 24 26" id="play-white-border"><path d="M21.067 15.485 5.485 24.363A3 3 0 0 1 1 21.756V4a3 3 0 0 1 4.485-2.607l15.582 8.879a3 3 0 0 1 0 5.213Z" stroke="#fff" stroke-width="2" fill="none" fill-rule="evenodd"></path></symbol><symbol viewBox="0 0 27 27" id="plus"><g stroke-width="4" fill="none" fill-rule="evenodd" stroke-linecap="round"><path d="M24.814 13.5H2.186M13.5 2.186v22.628"></path></g></symbol><symbol viewBox="0 0 22 15" fill="none" id="schedule"><path d="M16.102 9.583v1.836c0 1.091-.735 1.984-1.633 1.984H2.633C1.735 13.403 1 12.51 1 11.42V3.48c0-1.092.735-1.985 1.633-1.985h11.836c.898 0 1.633.893 1.633 1.985v1.885L21 1v12.9l-4.898-4.317zM3.45 5.465h4.897" stroke="#fff" stroke-miterlimit="10" stroke-linecap="round" stroke-linejoin="round"></path></symbol><symbol viewBox="0 0 20 20" id="search"><g stroke-width="2" stroke-linecap="round" stroke-linejoin="bevel" fill="none" fill-rule="evenodd"><path d="M13.292 3.937a6.615 6.615 0 1 1-9.355 9.355 6.615 6.615 0 0 1 9.355-9.355ZM15.29 15.388l3.93 3.93"></path></g></symbol><symbol viewBox="0 0 512 512" id="sound-available"><path d="M391 256c0-35.5-21.7-65.9-52.5-78.7l-16.4 39.4c15.4 6.4 26.2 21.6 26.2 39.4 0 17.7-10.8 32.9-26.2 39.4l16.4 39.4c30.8-13 52.5-43.4 52.5-78.9zM371.3 98.5l-16.4 39.4c46.3 19.3 78.8 64.9 78.8 118.1 0 53.3-32.5 98.8-78.8 118.1l16.4 39.4c61.7-25.7 105-86.5 105-157.5S433 124.2 371.3 98.5zM49.7 149.3v213.3H135L284.3 512V0L135 149.3H49.7z"></path></symbol><symbol viewBox="0 0 36 36" id="sound-muted"><path class="clr-i-solid clr-i-solid-path-1" d="M24.87 6.69a12.42 12.42 0 0 1 3.88 19.61l1.42 1.42a14.43 14.43 0 0 0-4.43-22.84 1 1 0 0 0-.87 1.8Z"></path><path class="clr-i-solid clr-i-solid-path-2" d="m27.3 27.67-3.84-3.84-.57-.57L4.63 5 3.21 6.41 8.8 12H3a1 1 0 0 0-1 1v10a1 1 0 0 0 1 1h5.83l9.51 8.3a1 1 0 0 0 1.66-.75V23.2l5.59 5.59c-.17.1-.34.2-.51.29a1 1 0 0 0 .9 1.79c.37-.19.72-.4 1.08-.62l2.14 2.14L30.61 31l-3.25-3.25Z"></path><path class="clr-i-solid clr-i-solid-path-3" d="M22.69 12.62A6.27 6.27 0 0 1 25.8 18a6.17 6.17 0 0 1-1.42 3.92l1.42 1.42a8.16 8.16 0 0 0 2-5.34 8.28 8.28 0 0 0-4.1-7.11 1 1 0 1 0-1 1.73Z"></path><path class="clr-i-solid clr-i-solid-path-4" d="M20 4.62a1 1 0 0 0-1.66-.75l-6.42 5.6L20 17.54Z"></path><path fill="none" d="M0 0h36v36H0z"></path></symbol><symbol viewBox="0 0 512 512" id="sound-not-available"><path d="M214.986 24.477 99.224 140.238H0v231.524h99.224l115.762 115.761h16.537V24.477zM512 191.685l-35.081-35.081-64.315 64.315-64.317-64.315-35.079 35.081L377.523 256l-64.315 64.315 35.079 35.081 64.317-64.315 64.315 64.315L512 320.315 447.683 256z"></path></symbol><symbol viewBox="0 0 16 14" id="tick"><path d="M13.861.997a1.237 1.237 0 0 1 1.74-.076c.462.42.527 1.11.173 1.606l-.097.12L5.756 13.4.324 7.534a1.215 1.215 0 0 1 .074-1.726 1.238 1.238 0 0 1 1.628-.034l.111.107 3.614 3.904 8.11-8.788Z" fill-rule="evenodd"></path></symbol><symbol viewBox="0 0 13 18" id="trash-closed"><g fill-rule="nonzero" fill="none"><path d="m2.913 16-.818-9h8.81l-.818 9H2.913Z" stroke="#000" stroke-width="2"></path><path d="M1 3h11a1 1 0 0 1 1 1v1H0V4a1 1 0 0 1 1-1ZM6 0h1a1 1 0 0 1 1 1v1H5V1a1 1 0 0 1 1-1Z" fill="#000"></path></g></symbol><symbol viewBox="0 0 14 20" id="trash-opened"><g fill-rule="nonzero" fill="none"><path d="m2.913 19-.818-9h8.81l-.818 9H2.913Z" stroke="#FFF" stroke-width="2"></path><g fill="#FFF"><path d="m2.058 3.56 10.625 2.846a1 1 0 0 1 .707 1.225l-.259.966L.574 5.232l.26-.965a1 1 0 0 1 1.224-.708ZM7.664 1.956l.966.259a1 1 0 0 1 .707 1.224l-.259.966-2.897-.776.258-.966a1 1 0 0 1 1.225-.707Z"></path></g></g></symbol><symbol viewBox="0 0 40 40" id="water-footprint"><g fill="none" fill-rule="evenodd"><circle stroke="#969696" fill="#FFF" cx="20" cy="20" r="19.5"></circle><path d="M20.412 7.7a.542.542 0 0 0-.838 0c-1.78 2.346-8.434 11.516-8.434 15.836.025 4.958 3.982 8.964 8.854 8.964 4.872 0 8.83-4.006 8.854-8.964 0-4.32-6.653-13.49-8.435-15.836m2.32 21.622a.774.774 0 0 1-.337.051.89.89 0 0 1-.787-.462c-.153-.396.04-.834.45-1.025 3.319-1.231 3.036-4.924 2.98-4.976a.75.75 0 0 1 .371-.695.915.915 0 0 1 .847-.052c.272.123.45.369.47.645.224 1.641-.45 5.18-3.994 6.514" fill="#969696" fill-rule="nonzero"></path></g></symbol><symbol viewBox="0 0 60 60" id="wow-badge-round"><path d="M60 30a3.93 3.93 0 0 0-.16-1.17 1.12 1.12 0 0 0-.05-.13 15.62 15.62 0 0 0-1.35-3c-.39-.72-.69-1.27-.91-1.75a14.67 14.67 0 0 1-.66-4.38c0-.85-.11-1.57-.19-2.19-.24-2.65-1-3.47-3.31-4.72a14.47 14.47 0 0 1-6-6c-1.47-2.8-2.31-3.21-6.84-3.51-3.6-.23-4.05-.35-6.81-1.82l-.14-.06A6.94 6.94 0 0 0 30 0a3.93 3.93 0 0 0-1.17.16h-.13a15.62 15.62 0 0 0-3 1.35c-.7.49-1.27.74-1.7.96a14.67 14.67 0 0 1-4.38.66c-.85.05-1.57.11-2.19.19-2.65.24-3.47.95-4.72 3.31a14.47 14.47 0 0 1-6 6C3.84 14.11 3.43 15 3.13 19.48c-.23 3.6-.35 4.05-1.82 6.81l-.06.14A6.94 6.94 0 0 0 0 30a3.93 3.93 0 0 0 .16 1.17 1.12 1.12 0 0 0 0 .13 15.62 15.62 0 0 0 1.35 3c.39.72.69 1.27.91 1.75a14.67 14.67 0 0 1 .66 4.38c.05.85.11 1.57.19 2.19.24 2.65.95 3.47 3.31 4.72a14.47 14.47 0 0 1 6 6c1.47 2.8 2.31 3.21 6.84 3.51 3.6.23 4.05.35 6.81 1.82l.14.06A6.94 6.94 0 0 0 30 60a3.93 3.93 0 0 0 1.17-.16l.13-.05a15.62 15.62 0 0 0 3-1.35c.72-.39 1.27-.69 1.75-.91a14.67 14.67 0 0 1 4.38-.66c.85 0 1.57-.11 2.19-.19 2.65-.24 3.47-1 4.72-3.31a14.47 14.47 0 0 1 6-6c2.8-1.47 3.21-2.31 3.51-6.84.23-3.6.35-4.05 1.82-6.81l.06-.14A6.94 6.94 0 0 0 60 30Z" fill="currentColor"></path></symbol><symbol viewBox="0 0 42 34" id="wow-quotes"><path d="M13 3.3C.2 10.9-4.2 27.8 5.3 32.7c3.5 1.8 9 1.2 11.8-1.3 4.7-4.2 2.7-12.3-3.6-14.4-3.1-1-3.4-1.4-2.9-3.8 1-4 2.3-6.4 5.7-10C18 1.5 19.2 0 18.9 0 18.6 0 16 1.5 13 3.3zM34.5 5.1c-5 4.6-8.5 12.5-8.5 19 0 3.1.7 4.7 2.9 7 1.9 2.3 6.3 3.1 9.9.9 4.6-4.3 3.8-11.1-1.6-14.5-2.7-1.7-3.1-2.4-2.6-5 .3-1.7 1.7-4.9 3-7.3C39 2.9 39.8 1 39.5 1s-2.5 1.8-5 4.1z" fill="currentColor"></path></symbol></defs></svg>